# xmcd
#
# Track frame offsets: 
#        150
#        21099
#        42956
#        69141
#        87348
#        101143
#        121700
#        149565
#        204329
#        217923
#
# Disc length: 3261 seconds
#
# Revision: 0
# Processed by: cddbd v1.5.2PL0 Copyright (c) Steve Scherf et al.
# Submitted via: ExactAudioCopyFreeDBPlugin 1.0
#
DISCID=840cbb0a
DTITLE=JP SOARS - Live from the Netherlands
DYEAR=1900
DGENRE=Blues
TTITLE0=Born in California Raised in Arkansas
TTITLE1=So Many Time
TTITLE2=Pipeline
TTITLE3=Letter to my Girlfriend
TTITLE4=Mamacita
TTITLE5=Back Of My Mind
TTITLE6=Walking throug the Park
TTITLE7=They'll Do it Everytime
TTITLE8=Cigar Box Guitar Freakout
TTITLE9=Gangster of Love
EXTD=
EXTT0=
EXTT1=
EXTT2=
EXTT3=
EXTT4=
EXTT5=
EXTT6=
EXTT7=
EXTT8=
EXTT9=
PLAYORDER=
